<?xml version="1.0" encoding="UTF-8"?>
<svg width="66px" height="10px" viewBox="0 0 66 10" version="1.1" xmlns="http://www.w3.org/2000/svg" xmlns:xlink="http://www.w3.org/1999/xlink">
    <!-- Generator: Sketch 50.2 (55047) - http://www.bohemiancoding.com/sketch -->
    <title>Page 1</title>
    <desc>Created with Sketch.</desc>
    <defs></defs>
    <g id="Symbols" stroke="none" stroke-width="1" fill="none" fill-rule="evenodd">
        <g id="NMNH-SI-color" transform="translate(0.000000, -82.000000)">
            <g id="Page-1" transform="translate(0.000000, 82.000000)">
                <path d="M15.4744976,3.81360913 C15.2812772,3.12213881 15.0020882,2.3768968 14.068537,2.3768968 C13.2422378,2.3768968 12.8774976,2.9822484 12.8774976,3.56491507 C12.8774976,4.35384658 13.3928913,4.72100639 14.240474,5.16378265 C15.0772063,5.59563653 16.096726,6.10352694 16.096726,7.31338995 C16.096726,8.44763653 15.141474,9.3546137 13.7146472,9.3546137 C13.274789,9.3546137 12.930915,9.26849498 12.6629937,9.19287854 C12.3946551,9.09541735 12.2335685,9.020221 12.1371669,8.96602922 C12.0511984,8.7396 11.9118126,7.81035799 11.8475449,7.29154521 L12.1588677,7.21634886 C12.3303874,7.87505205 12.8132299,8.96602922 13.9183008,8.96602922 C14.7233165,8.96602922 15.2057417,8.4585589 15.2057417,7.67004749 C15.2057417,6.87019361 14.6156472,6.49253151 13.8110488,6.06067763 C13.1241354,5.69351781 12.040348,5.15286027 12.040348,3.93249498 C12.040348,2.8952895 12.8666472,2.00973699 14.2509071,2.00973699 C14.7446,2.00973699 15.1953087,2.12862283 15.6034504,2.25843105 C15.6460173,2.64743562 15.699852,3.06836712 15.7854031,3.74891507 L15.4744976,3.81360913 Z" id="Fill-1" fill="#00778B"></path>
                <path d="M22.6745685,9.19275251 L22.6745685,8.91213151 C23.3076472,8.84743744 23.4257496,8.80374795 23.4257496,8.03708128 L23.4257496,6.23320913 C23.4257496,5.46654247 23.157411,4.9804968 22.481348,4.9804968 C22.0949071,4.9804968 21.6871827,5.19600365 21.2794583,5.5421589 C21.3011591,5.67154703 21.3115921,5.79001279 21.3115921,5.99585753 L21.3115921,8.10177534 C21.3115921,8.78232329 21.408411,8.84743744 21.9985055,8.91213151 L21.9985055,9.19275251 L19.7023953,9.19275251 L19.7023953,8.91213151 C20.3676079,8.84743744 20.4640094,8.79324566 20.4640094,8.08035068 L20.4640094,6.22270685 C20.4640094,5.42285297 20.1848205,4.9804968 19.5304583,4.9804968 C19.1010331,4.9804968 18.6828756,5.27204018 18.3607024,5.5421589 L18.3607024,8.08035068 C18.3607024,8.78232329 18.4466709,8.84743744 18.9724976,8.91213151 L18.9724976,9.19275251 L16.7085213,9.19275251 L16.7085213,8.91213151 C17.4163008,8.84743744 17.5131197,8.78232329 17.5131197,8.08035068 L17.5131197,5.84420457 C17.5131197,5.15315434 17.4809858,5.09896256 16.8583402,5.00150137 L16.8583402,4.75364749 C17.3307496,4.66710868 17.8778598,4.52679817 18.3502693,4.31045114 L18.3502693,5.18550137 C18.5756236,5.03426849 18.811411,4.83976621 19.1335843,4.63434155 C19.4127732,4.46168402 19.6698441,4.34279817 20.0133008,4.34279817 C20.5282772,4.34279817 20.9898362,4.66710868 21.2047575,5.22835068 C21.515663,4.99099909 21.8269858,4.78599452 22.0949071,4.62383927 C22.3202614,4.47260639 22.5994504,4.34279817 22.8999228,4.34279817 C23.7366551,4.34279817 24.2628992,4.93680731 24.2628992,5.99585753 L24.2628992,8.08035068 C24.2628992,8.80374795 24.3484504,8.84743744 24.9602457,8.91213151 L24.9602457,9.19275251 L22.6745685,9.19275251 Z" id="Fill-3" fill="#00778B"></path>
                <path d="M26.1186921,2.85239817 C26.1186921,2.52850776 26.3761803,2.29073607 26.6662197,2.29073607 C26.9662748,2.29073607 27.2028969,2.52850776 27.2028969,2.85239817 C27.2028969,3.14394155 26.9662748,3.40355799 26.6553693,3.40355799 C26.3761803,3.40355799 26.1186921,3.14394155 26.1186921,2.85239817 Z M25.5502984,9.19283653 L25.5502984,8.91221553 C26.2259441,8.84752146 26.3010622,8.78240731 26.3010622,8.04766758 L26.3010622,5.82244384 C26.3010622,5.15323836 26.2689283,5.10996895 25.6249992,5.00158539 L25.6249992,4.74238904 C26.1725268,4.65627032 26.6766528,4.51595982 27.1490622,4.32145753 L27.1490622,8.04766758 C27.1490622,8.78240731 27.223763,8.84752146 27.9106764,8.91221553 L27.9106764,9.19283653 L25.5502984,9.19283653 Z" id="Fill-5" fill="#00778B"></path>
                <path d="M30.4215409,9.18208219 C30.2391709,9.27912329 30.0672339,9.32239269 29.9708323,9.32239269 C29.2951866,9.32239269 28.9191787,8.89053881 28.9191787,8.03691324 L28.9191787,4.89378995 L28.178848,4.89378995 L28.1358638,4.78582648 L28.4259031,4.47243836 L28.9191787,4.47243836 L28.9191787,3.68392694 L29.6165252,2.97103196 L29.7671787,2.99287671 L29.7671787,4.47243836 L30.9795016,4.47243836 C31.0759031,4.58082192 31.0437693,4.81817352 30.9152339,4.89378995 L29.7671787,4.89378995 L29.7671787,7.66975342 C29.7671787,8.54480365 30.1210685,8.7069589 30.3894071,8.7069589 C30.6573283,8.7069589 30.9043835,8.59857534 31.055037,8.523379 L31.1514386,8.804 L30.4215409,9.18208219 Z" id="Fill-7" fill="#00778B"></path>
                <path d="M34.5311693,9.19275251 L34.5311693,8.91213151 C35.1533976,8.84743744 35.2393661,8.78232329 35.2393661,8.08035068 L35.2393661,6.28740091 C35.2393661,5.4018484 34.9067598,4.95865205 34.1877126,4.95865205 C33.7799882,4.95865205 33.3722638,5.16365662 33.0717913,5.50939178 L33.0717913,8.08035068 C33.0717913,8.771821 33.125626,8.84743744 33.7582874,8.91213151 L33.7582874,9.19275251 L31.4834606,9.19275251 L31.4834606,8.91213151 C32.1273898,8.85793973 32.2242087,8.79324566 32.2242087,8.08035068 L32.2242087,2.92793059 C32.2242087,2.24738265 32.2029252,2.19361096 31.4947283,2.12891689 L31.4947283,1.88022283 C32.0097047,1.80460639 32.6536339,1.63194886 33.0717913,1.50214064 L33.0717913,5.13130959 C33.4473819,4.74230502 34.0270433,4.34279817 34.6062874,4.34279817 C35.4755709,4.34279817 36.0873661,4.89395799 36.0873661,6.19035982 L36.0873661,8.08035068 C36.0873661,8.79324566 36.1620669,8.85793973 36.795563,8.91213151 L36.795563,9.19275251 L34.5311693,9.19275251 Z" id="Fill-9" fill="#00778B"></path>
                <path d="M40.0896173,5.74707945 C39.8855465,5.10980091 39.5099559,4.67794703 38.9845465,4.67794703 C38.5764047,4.67794703 38.2867827,5.00183744 38.2867827,5.42318904 C38.2867827,5.9092347 38.7162079,6.15792877 39.1986331,6.36293333 C40.0036488,6.69774612 40.5507591,7.08633059 40.5507591,7.83199269 C40.5507591,8.81500639 39.6389087,9.32247671 38.7804756,9.32247671 C38.2333654,9.32247671 37.7396724,9.11663196 37.546452,8.95531689 C37.4713339,8.80366393 37.374515,8.06934429 37.374515,7.68075982 L37.6537039,7.62656804 C37.8469244,8.33946301 38.3297669,8.96581918 38.9732787,8.96581918 C39.3705701,8.96581918 39.7353102,8.66335342 39.7353102,8.20965479 C39.7353102,7.73453151 39.4239874,7.47533516 38.8877276,7.226221 C38.2437984,6.92459543 37.546452,6.5679379 37.546452,5.73657717 C37.546452,4.98041279 38.1899638,4.34271416 39.1773496,4.34271416 C39.6172079,4.34271416 39.9072472,4.44017534 40.1326016,4.52671416 C40.2185701,4.77498813 40.3362551,5.41226667 40.368389,5.68238539 L40.0896173,5.74707945 Z" id="Fill-11" fill="#00778B"></path>
                <path d="M42.3535102,6.58974064 C42.3535102,7.95083653 42.9436047,8.96577717 43.8233213,8.96577717 C44.4889512,8.96577717 45.0364787,8.46922922 45.0364787,6.98924749 C45.0364787,5.72519269 44.5319354,4.69932968 43.5979669,4.69932968 C42.9331717,4.69932968 42.3535102,5.36937534 42.3535102,6.58974064 M46.0338803,6.75189589 C46.0338803,8.49065388 44.7677228,9.3224347 43.7056362,9.3224347 C42.2354079,9.3224347 41.3556913,8.13441644 41.3556913,6.93505571 C41.3556913,5.15302831 42.7291008,4.34267215 43.7056362,4.34267215 C45.0364787,4.34267215 46.0338803,5.41222466 46.0338803,6.75189589" id="Fill-13" fill="#00778B"></path>
                <path d="M49.6823669,9.19275251 L49.6823669,8.91213151 C50.315863,8.84743744 50.3905638,8.76089863 50.3905638,8.01523653 L50.3905638,6.21136438 C50.3905638,5.46654247 50.1330756,4.9804968 49.4140283,4.9804968 C48.9850205,4.9804968 48.5664457,5.25019543 48.2446898,5.53081644 L48.2446898,8.06942831 C48.2446898,8.80374795 48.3089575,8.84743744 48.9424535,8.91213151 L48.9424535,9.19275251 L46.6133748,9.19275251 L46.6133748,8.91213151 C47.3436898,8.83609498 47.3966898,8.78232329 47.3966898,8.06942831 L47.3966898,5.83370228 C47.3966898,5.14223196 47.332422,5.10988493 46.7527606,5.00150137 L46.7527606,4.75364749 C47.2681543,4.6561863 47.7726976,4.52679817 48.2446898,4.31045114 L48.2446898,5.17499909 C48.4591937,5.01284384 48.6953984,4.85068858 48.9633197,4.66710868 C49.2637921,4.47260639 49.5429811,4.34279817 49.8543039,4.34279817 C50.7018866,4.34279817 51.2385638,4.93680731 51.2385638,5.98451507 L51.2385638,8.06942831 C51.2385638,8.80374795 51.2919811,8.84743744 51.9146268,8.91213151 L51.9146268,9.19275251 L49.6823669,9.19275251 Z" id="Fill-15" fill="#00778B"></path>
                <path d="M53.0840906,2.85239817 C53.0840906,2.52850776 53.3415787,2.29073607 53.6312008,2.29073607 C53.9316732,2.29073607 54.167878,2.52850776 54.167878,2.85239817 C54.167878,3.14394155 53.9316732,3.40355799 53.6203504,3.40355799 C53.3415787,3.40355799 53.0840906,3.14394155 53.0840906,2.85239817 Z M52.5152795,9.19283653 L52.5152795,8.91221553 C53.1913425,8.84752146 53.2664606,8.78240731 53.2664606,8.04766758 L53.2664606,5.82244384 C53.2664606,5.15323836 53.2339094,5.10996895 52.5903976,5.00158539 L52.5903976,4.74238904 C53.1375079,4.65627032 53.6420512,4.51595982 54.1140433,4.32145753 L54.1140433,8.04766758 C54.1140433,8.78240731 54.1891614,8.84752146 54.8760748,8.91221553 L54.8760748,9.19283653 L52.5152795,9.19283653 Z" id="Fill-17" fill="#00778B"></path>
                <path d="M58.0304512,6.60041096 C57.8050969,6.7192968 57.2901205,6.94614612 57.0647661,7.05410959 C56.6461913,7.24861187 56.4099866,7.45361644 56.4099866,7.842621 C56.4099866,8.40428311 56.8394118,8.67440183 57.1720181,8.67440183 C57.4507898,8.66347945 57.8267976,8.48031963 58.0304512,8.28581735 L58.0304512,6.60041096 Z M58.8137661,9.32218265 C58.6526795,9.32218265 58.4273252,9.22514155 58.3096402,9.11717808 C58.169837,8.96594521 58.1055693,8.81471233 58.052152,8.63113242 C57.6227268,8.9226758 57.1077504,9.32218265 56.7859945,9.32218265 C56.0235457,9.32218265 55.4981362,8.6853242 55.4981362,8.00477626 C55.4981362,7.47546119 55.7773252,7.1406484 56.3674197,6.93522374 C57.0113488,6.7192968 57.7946638,6.42775342 58.0304512,6.23325114 L58.0304512,6.03874886 C58.0304512,5.26115982 57.665711,4.81838356 57.1290339,4.81838356 C56.9145299,4.81838356 56.7534433,4.90450228 56.6461913,5.03389041 C56.5068055,5.174621 56.4099866,5.41239269 56.3244354,5.74720548 C56.2814512,5.91986301 56.1633488,5.99589954 56.0131126,5.99589954 C55.8198921,5.99589954 55.5411205,5.77955251 55.5411205,5.53085845 C55.5411205,5.36912329 55.6805063,5.25023744 55.8841598,5.09900457 C56.1846323,4.88307763 56.8823961,4.46172603 57.4941913,4.34284018 C57.8155299,4.34284018 58.1377031,4.43988128 58.3739079,4.63438356 C58.7494984,4.94777169 58.8563331,5.39054795 58.8563331,5.95221005 L58.8563331,7.96150685 C58.8563331,8.44755251 59.0495535,8.60970776 59.2323409,8.60970776 C59.3608764,8.60970776 59.5111126,8.55551598 59.6187819,8.49082192 L59.7256165,8.77186301 L58.8137661,9.32218265 Z" id="Fill-19" fill="#00778B"></path>
                <path d="M63.0737559,9.19275251 L63.0737559,8.91213151 C63.707252,8.84743744 63.7819528,8.76089863 63.7819528,8.01523653 L63.7819528,6.21136438 C63.7819528,5.46654247 63.5244646,4.9804968 62.8054173,4.9804968 C62.3764094,4.9804968 61.9578346,5.25019543 61.6360787,5.53081644 L61.6360787,8.06942831 C61.6360787,8.80374795 61.7003465,8.84743744 62.3338425,8.91213151 L62.3338425,9.19275251 L60.0047638,9.19275251 L60.0047638,8.91213151 C60.7350787,8.83609498 60.7880787,8.78232329 60.7880787,8.06942831 L60.7880787,5.83370228 C60.7880787,5.14223196 60.723811,5.10988493 60.1441496,5.00150137 L60.1441496,4.75364749 C60.6595433,4.6561863 61.1640866,4.52679817 61.6360787,4.31045114 L61.6360787,5.17499909 C61.8505827,5.01284384 62.0867874,4.85068858 62.3547087,4.66710868 C62.6551811,4.47260639 62.9343701,4.34279817 63.2456929,4.34279817 C64.0932756,4.34279817 64.6299528,4.93680731 64.6299528,5.98451507 L64.6299528,8.06942831 C64.6299528,8.80374795 64.6833701,8.84743744 65.3060157,8.91213151 L65.3060157,9.19275251 L63.0737559,9.19275251 Z" id="Fill-21" fill="#00778B"></path>
                <path d="M4.46326772,9.84120548 C1.99814173,9.84120548 0,7.82980822 0,5.34874886 C0,2.8676895 1.99814173,0.856292237 4.46326772,0.856292237 C6.92797638,0.856292237 8.92611811,2.8676895 8.92611811,5.34874886 C8.92611811,7.82980822 6.92797638,9.84120548 4.46326772,9.84120548 Z" id="Fill-23" fill="#00778B"></path>
                <path d="M7.15537559,6.25866667 C6.86617087,5.75875799 6.40961969,5.7532968 6.3532811,5.75455708 L6.3532811,5.75287671 L8.27922598,5.34874886 L6.3532811,4.9450411 L6.3532811,4.944621 C6.3733126,4.92613699 6.74765118,4.59384475 7.30936772,4.58544292 C7.73336772,4.57872146 8.10019449,4.05696804 7.86607638,3.65578082 C7.86607638,3.65578082 7.79638346,4.2863379 7.00597402,4.07587215 C6.4501,3.928 6.12250157,4.24936986 6.0845252,4.29011872 L6.08410787,4.28969863 L7.16205276,2.63243836 L5.5161315,3.71795434 C5.51571417,3.71795434 5.51529685,3.71753425 5.51529685,3.71753425 C5.51654882,3.69358904 5.54701339,3.18947945 5.93887953,2.78325114 C6.23434409,2.47658447 6.1266748,1.84644749 5.67972205,1.7296621 C5.67972205,1.7296621 6.07284016,2.22452968 5.36672992,2.63873973 C4.86969843,2.92986301 4.86427323,3.38986301 4.8655252,3.44657534 C4.8655252,3.44657534 4.86469055,3.44657534 4.86469055,3.44615525 L4.46322598,1.5070137 L4.06217874,3.44615525 C4.06176142,3.44657534 4.06134409,3.44657534 4.06134409,3.44657534 C4.0450685,3.42893151 3.7124622,3.05084932 3.70369843,2.48372603 C3.69785591,2.05733333 3.17912362,1.68765297 2.78099764,1.92374429 C2.78099764,1.92374429 3.40698189,1.99389954 3.19832047,2.78913242 C3.05100551,3.35037443 3.37192677,3.67972603 3.41115512,3.71753425 L3.4107378,3.71753425 L1.76439921,2.63243836 L2.6432811,3.98261187 L2.84276142,4.28927854 C2.84276142,4.28969863 2.84276142,4.28969863 2.84234409,4.28969863 C2.82648583,4.28927854 2.32110787,4.26113242 1.91338346,3.86330594 C1.60957244,3.56630137 0.983170866,3.67426484 0.867155118,4.12460274 C0.867155118,4.12460274 1.35876142,3.72845662 1.77065906,4.43967123 C2.06069843,4.94084018 2.5189189,4.9450411 2.57317087,4.94378082 L2.57317087,4.944621 L0.646808661,5.34874886 L2.57317087,5.75287671 L2.57317087,5.7532968 C2.56023386,5.76505936 2.18380866,6.10449315 1.61666693,6.11289498 C1.19266693,6.11961644 0.825840157,6.64136986 1.05995827,7.04255708 C1.05995827,7.04255708 1.12965118,6.412 1.92006063,6.62204566 C2.47843858,6.77075799 2.80561969,6.4460274 2.84192677,6.407379 L2.84317874,6.40863927 L1.76481654,8.06547945 L3.41032047,6.98038356 C3.40948583,6.99760731 3.38194252,7.50549772 2.9867378,7.91508676 C2.69169055,8.22175342 2.79894252,8.85147032 3.2463126,8.9686758 C3.2463126,8.9686758 2.85235984,8.47338813 3.55930472,8.05959817 C4.05717087,7.7676347 4.06176142,7.30637443 4.06050945,7.25134247 C4.06092677,7.25134247 4.06134409,7.25176256 4.06217874,7.25176256 L4.46322598,9.19048402 L4.86469055,7.25176256 C4.87929685,7.26772603 5.21357244,7.64622831 5.2219189,8.21461187 C5.22817874,8.64100457 5.74691102,9.01068493 6.14503701,8.77459361 C6.14503701,8.77459361 5.51905276,8.70485845 5.72771417,7.90920548 C5.87502913,7.34838356 5.55410787,7.01903196 5.5144622,6.98122374 C5.51487953,6.98080365 5.51529685,6.98038356 5.5161315,6.97996347 L7.16205276,8.06547945 L6.59240709,7.19084932 L6.08369055,6.40821918 C6.10622598,6.40947945 6.60743071,6.43972603 7.01223386,6.83503196 C7.3164622,7.13203653 7.94286378,7.02407306 8.05887953,6.57415525 C8.05887953,6.57415525 7.56685591,6.96988128 7.15537559,6.25866667" id="Fill-25" fill="#FFFFFF"></path>
            </g>
        </g>
    </g>
</svg>